<mxfile host="app.diagrams.net" modified="2022-03-08T13:47:25.679Z" agent="5.0 (Macintosh; Intel Mac OS X 10_15_7) AppleWebKit/537.36 (KHTML, like Gecko) Chrome/99.0.4844.51 Safari/537.36" etag="RdBwOlVyaAhuOuHh_p1W" version="16.6.6" type="github" pages="2">
  <diagram id="0ovgHpSxQsr8m6n7m_qp" name="云服务管理">
    <mxGraphModel dx="1186" dy="739" grid="1" gridSize="10" guides="1" tooltips="1" connect="1" arrows="1" fold="1" page="1" pageScale="1" pageWidth="827" pageHeight="1169" math="0" shadow="0">
      <root>
        <mxCell id="0" />
        <mxCell id="1" parent="0" />
        <mxCell id="YojKbc8meRJluRgf1eFv-1" value="" style="whiteSpace=wrap;html=1;aspect=fixed;dashed=1;fillColor=#f5f5f5;fontColor=#333333;strokeColor=#666666;" parent="1" vertex="1">
          <mxGeometry x="100" y="100" width="680" height="680" as="geometry" />
        </mxCell>
        <mxCell id="YojKbc8meRJluRgf1eFv-2" value="" style="rounded=1;whiteSpace=wrap;html=1;fillColor=#f5f5f5;fontColor=#333333;strokeColor=#666666;" parent="1" vertex="1">
          <mxGeometry x="130" y="140" width="170" height="630" as="geometry" />
        </mxCell>
        <mxCell id="YojKbc8meRJluRgf1eFv-3" value="" style="rounded=1;whiteSpace=wrap;html=1;fillColor=#f5f5f5;fontColor=#333333;strokeColor=#666666;" parent="1" vertex="1">
          <mxGeometry x="360" y="140" width="160" height="630" as="geometry" />
        </mxCell>
        <mxCell id="YojKbc8meRJluRgf1eFv-4" value="" style="rounded=1;whiteSpace=wrap;html=1;fillColor=#f5f5f5;fontColor=#333333;strokeColor=#666666;" parent="1" vertex="1">
          <mxGeometry x="580" y="140" width="160" height="630" as="geometry" />
        </mxCell>
        <mxCell id="YojKbc8meRJluRgf1eFv-5" value="租户管理" style="rounded=1;whiteSpace=wrap;html=1;" parent="1" vertex="1">
          <mxGeometry x="155" y="240" width="120" height="60" as="geometry" />
        </mxCell>
        <mxCell id="YojKbc8meRJluRgf1eFv-6" value="合同管理" style="rounded=1;whiteSpace=wrap;html=1;" parent="1" vertex="1">
          <mxGeometry x="155" y="329" width="120" height="60" as="geometry" />
        </mxCell>
        <mxCell id="YojKbc8meRJluRgf1eFv-7" value="云服务产品管理" style="rounded=1;whiteSpace=wrap;html=1;" parent="1" vertex="1">
          <mxGeometry x="155" y="419" width="120" height="60" as="geometry" />
        </mxCell>
        <mxCell id="YojKbc8meRJluRgf1eFv-8" value="费用结算" style="rounded=1;whiteSpace=wrap;html=1;" parent="1" vertex="1">
          <mxGeometry x="155" y="507" width="120" height="60" as="geometry" />
        </mxCell>
        <mxCell id="YojKbc8meRJluRgf1eFv-9" value="报表与审计" style="rounded=1;whiteSpace=wrap;html=1;" parent="1" vertex="1">
          <mxGeometry x="155" y="592" width="120" height="60" as="geometry" />
        </mxCell>
        <mxCell id="YojKbc8meRJluRgf1eFv-10" value="价格管理" style="rounded=1;whiteSpace=wrap;html=1;" parent="1" vertex="1">
          <mxGeometry x="155" y="677" width="120" height="60" as="geometry" />
        </mxCell>
        <mxCell id="YojKbc8meRJluRgf1eFv-11" value="&lt;b&gt;&lt;font style=&quot;font-size: 14px&quot;&gt;业务支持&lt;/font&gt;&lt;/b&gt;" style="text;html=1;strokeColor=none;fillColor=none;align=center;verticalAlign=middle;whiteSpace=wrap;rounded=0;" parent="1" vertex="1">
          <mxGeometry x="185" y="160" width="60" height="30" as="geometry" />
        </mxCell>
        <mxCell id="YojKbc8meRJluRgf1eFv-12" value="&lt;span style=&quot;font-size: 14px&quot;&gt;&lt;b&gt;交付与配置&lt;/b&gt;&lt;/span&gt;" style="text;html=1;strokeColor=none;fillColor=none;align=center;verticalAlign=middle;whiteSpace=wrap;rounded=0;" parent="1" vertex="1">
          <mxGeometry x="400" y="160" width="80" height="30" as="geometry" />
        </mxCell>
        <mxCell id="YojKbc8meRJluRgf1eFv-13" value="快速交付" style="rounded=1;whiteSpace=wrap;html=1;" parent="1" vertex="1">
          <mxGeometry x="380" y="269" width="120" height="60" as="geometry" />
        </mxCell>
        <mxCell id="YojKbc8meRJluRgf1eFv-14" value="资源变更" style="rounded=1;whiteSpace=wrap;html=1;" parent="1" vertex="1">
          <mxGeometry x="380" y="359" width="120" height="60" as="geometry" />
        </mxCell>
        <mxCell id="YojKbc8meRJluRgf1eFv-15" value="资源监控" style="rounded=1;whiteSpace=wrap;html=1;" parent="1" vertex="1">
          <mxGeometry x="380" y="459" width="120" height="60" as="geometry" />
        </mxCell>
        <mxCell id="YojKbc8meRJluRgf1eFv-16" value="计量" style="rounded=1;whiteSpace=wrap;html=1;" parent="1" vertex="1">
          <mxGeometry x="380" y="559" width="120" height="60" as="geometry" />
        </mxCell>
        <mxCell id="YojKbc8meRJluRgf1eFv-17" value="服务水平协议管理" style="rounded=1;whiteSpace=wrap;html=1;" parent="1" vertex="1">
          <mxGeometry x="380" y="654" width="120" height="60" as="geometry" />
        </mxCell>
        <mxCell id="YojKbc8meRJluRgf1eFv-18" value="&lt;span style=&quot;font-size: 14px&quot;&gt;&lt;b&gt;可移植性&lt;br&gt;互操作性&lt;br&gt;&lt;/b&gt;&lt;/span&gt;" style="text;html=1;strokeColor=none;fillColor=none;align=center;verticalAlign=middle;whiteSpace=wrap;rounded=0;" parent="1" vertex="1">
          <mxGeometry x="620" y="160" width="80" height="30" as="geometry" />
        </mxCell>
        <mxCell id="YojKbc8meRJluRgf1eFv-19" value="数据可移植性" style="rounded=1;whiteSpace=wrap;html=1;" parent="1" vertex="1">
          <mxGeometry x="600" y="206" width="120" height="60" as="geometry" />
        </mxCell>
        <mxCell id="YojKbc8meRJluRgf1eFv-20" value="数据进出复制" style="rounded=1;whiteSpace=wrap;html=1;" parent="1" vertex="1">
          <mxGeometry x="600" y="276" width="120" height="60" as="geometry" />
        </mxCell>
        <mxCell id="YojKbc8meRJluRgf1eFv-21" value="批量数据传输" style="rounded=1;whiteSpace=wrap;html=1;" parent="1" vertex="1">
          <mxGeometry x="600" y="346" width="120" height="60" as="geometry" />
        </mxCell>
        <mxCell id="YojKbc8meRJluRgf1eFv-22" value="互操作性" style="rounded=1;whiteSpace=wrap;html=1;" parent="1" vertex="1">
          <mxGeometry x="600" y="416" width="120" height="60" as="geometry" />
        </mxCell>
        <mxCell id="YojKbc8meRJluRgf1eFv-23" value="统一管理接口" style="rounded=1;whiteSpace=wrap;html=1;" parent="1" vertex="1">
          <mxGeometry x="600" y="486" width="120" height="60" as="geometry" />
        </mxCell>
        <mxCell id="YojKbc8meRJluRgf1eFv-24" value="系统可移植性" style="rounded=1;whiteSpace=wrap;html=1;" parent="1" vertex="1">
          <mxGeometry x="600" y="556" width="120" height="60" as="geometry" />
        </mxCell>
        <mxCell id="YojKbc8meRJluRgf1eFv-25" value="虚拟机迁移" style="rounded=1;whiteSpace=wrap;html=1;" parent="1" vertex="1">
          <mxGeometry x="600" y="626" width="120" height="60" as="geometry" />
        </mxCell>
        <mxCell id="YojKbc8meRJluRgf1eFv-26" value="应用程序迁移" style="rounded=1;whiteSpace=wrap;html=1;" parent="1" vertex="1">
          <mxGeometry x="600" y="696" width="120" height="60" as="geometry" />
        </mxCell>
        <mxCell id="YojKbc8meRJluRgf1eFv-27" value="云服务管理" style="text;html=1;strokeColor=none;fillColor=none;align=center;verticalAlign=middle;whiteSpace=wrap;rounded=0;fontSize=14;fontStyle=1" parent="1" vertex="1">
          <mxGeometry x="330" y="100" width="190" height="30" as="geometry" />
        </mxCell>
      </root>
    </mxGraphModel>
  </diagram>
  <diagram id="w2fylirBiulFvgZs0PXr" name="云技术">
    <mxGraphModel dx="1186" dy="739" grid="1" gridSize="10" guides="1" tooltips="1" connect="1" arrows="1" fold="1" page="1" pageScale="1" pageWidth="827" pageHeight="1169" math="0" shadow="0">
      <root>
        <mxCell id="y16_YYYqQaphuSQr3bpL-0" />
        <mxCell id="y16_YYYqQaphuSQr3bpL-1" parent="y16_YYYqQaphuSQr3bpL-0" />
      </root>
    </mxGraphModel>
  </diagram>
</mxfile>
